<?xml version="1.0" encoding="utf-8"?>
<!-- Generator: Adobe Illustrator 18.1.1, SVG Export Plug-In . SVG Version: 6.00 Build 0)  -->
<!DOCTYPE svg PUBLIC "-//W3C//DTD SVG 1.1//EN" "http://www.w3.org/Graphics/SVG/1.1/DTD/svg11.dtd">
<svg version="1.1" id="Layer_2" xmlns="http://www.w3.org/2000/svg" xmlns:xlink="http://www.w3.org/1999/xlink" x="0px" y="0px"
	 viewBox="0 0 50 25" enable-background="new 0 0 50 25" xml:space="preserve">
<style type="text/css">.background {fill:#ffffff;} .foreground {fill:#d9d9d9;}</style>
<path class="background" d="M0,0c0,13.8,11.2,25,25,25S50,13.8,50,0H0z"/>
<path class="foreground" d="M30,14.1c0.7-0.2,1.4-0.5,2-0.9V10h2V8h-2V6h8.9c-2.1,5.5-6.9,9.6-12.9,10.7V2h17.9c-1,10.7-10,19-20.9,19
	S5.1,12.7,4.1,2H22v14.7C16.1,15.6,11.2,11.5,9.1,6H18v2h-2v2h2v3.3c0.6,0.3,1.3,0.6,2,0.9V4H6.4c1.8,8.2,8.9,14.5,17.6,14.9V0H2
	c0,12.7,10.3,23,23,23S48,12.7,48,0H26v18.9c8.7-0.5,15.8-6.7,17.6-14.9H30V14.1z"/>
</svg>
